# xmcd CD database file
#
# Track frame offsets:
#	150
#	14319
#	29127
#	42976
#	57216
#	70544
#	85511
#	99656
#	115085
#	128921
#	141812
#	156964
#	171197
#	185760
#	200580
#	215019
#
# Disc length: 3062 seconds
#
# Revision: 0
# Processed by: cddbd v1.5.1PL2 Copyright (c) Steve Scherf et al.
# Submitted via: CDex 1.51
#
DISCID=e50bf410
DTITLE=Bessie Smith - Chicago Bound Blues
DYEAR=2005
DGENRE=Blues
TTITLE0=Weeping Willow Blues
TTITLE1=The Bye Bye Blues
TTITLE2=Sing Sing Prison Blues
TTITLE3=Cake Walkin' Baby (From Home)
TTITLE4=Dying Gambler's Blues
TTITLE5=Soft Pedal Blues
TTITLE6=Dixie Flyer Blues
TTITLE7=Careless Love Blues
TTITLE8=J.C. Holmes Blues
TTITLE9=Nobody's Blues But Mine
TTITLE10=I Ain't Gonna Play Second Fiddle
TTITLE11=Easy Come, Easy Go Blues
TTITLE12=Frosty Morning Blues
TTITLE13=Chicago Bound Blues
TTITLE14=My Sweet Went Away
TTITLE15=Sorrowful Blues
EXTD=YEAR: 2005
EXTT0=
EXTT1=
EXTT2=
EXTT3=
EXTT4=
EXTT5=
EXTT6=
EXTT7=
EXTT8=
EXTT9=
EXTT10=
EXTT11=
EXTT12=
EXTT13=
EXTT14=
EXTT15=
PLAYORDER=
